<?xml version="1.0" encoding="utf-8"?>
<!-- Generator: Adobe Illustrator 16.0.0, SVG Export Plug-In . SVG Version: 6.00 Build 0)  -->
<!DOCTYPE svg PUBLIC "-//W3C//DTD SVG 1.1//EN" "http://www.w3.org/Graphics/SVG/1.1/DTD/svg11.dtd">
<svg version="1.1" id="Layer_1" xmlns="http://www.w3.org/2000/svg" xmlns:xlink="http://www.w3.org/1999/xlink" x="0px" y="0px"
	 width="77.942px" height="103.846px" viewBox="0 0 77.942 103.846" enable-background="new 0 0 77.942 103.846"
	 xml:space="preserve">
<path fill="#3472B9" d="M77.921,34.101c0.006-0.279,0.021-0.553,0.021-0.827H77.9C77.037,14.782,61.723,0,43.013,0l0,0H0v47.744
	h20.454v32.419c0,8.384-6.029,15.392-13.978,16.911V54.736H0v49.11h3.241c13.058,0,23.688-10.625,23.688-23.683V47.744h12.318l0,0
	c7.49,0,13.584-6.093,13.584-13.586h0.002c0-7.124-5.516-12.966-12.502-13.522v-0.131H20.454v20.767H6.476V6.476h36.537l0,0
	c15.413,0,27.992,12.321,28.436,27.625c-0.443,15.305-13.022,27.625-28.436,27.625h-9.091v6.468h9.091
	c18.71,0,34.023-14.776,34.887-33.265h0.042C77.942,34.646,77.927,34.378,77.921,34.101z M26.929,26.972h12.318v0.084
	c3.926,0,7.107,3.185,7.107,7.102l0,0c0,3.922-3.182,7.113-7.107,7.113l0,0H26.929V26.972z"/>
</svg>
